<?xml version="1.0" encoding="UTF-8"?>
<svg width="67px" height="67px" viewBox="0 0 67 67" version="1.1" xmlns="http://www.w3.org/2000/svg" xmlns:xlink="http://www.w3.org/1999/xlink">
    <!-- Generator: Sketch 59.1 (86144) - https://sketch.com -->
    <title>配色</title>
    <desc>Created with Sketch.</desc>
    <g id="页面-1" stroke="none" stroke-width="1" fill="none" fill-rule="evenodd">
        <g id="画板" transform="translate(-221.000000, -340.000000)">
            <g id="配色" transform="translate(221.000000, 339.000000)">
                <rect id="矩形" x="0" y="0" width="68" height="68"></rect>
                <path d="M33.2444846,1 L33.2444831,1 C14.8840486,1 -5.68434189e-14,15.8840673 -5.68434189e-14,34.2445018 C-5.68434189e-14,52.6049364 14.8840486,67.488985 33.2444831,67.488985 C44.9465412,67.488985 26.0636748,54.1911917 46.5422764,54.1911917 L46.542277,54.1911917 C57.3733556,54.3763784 66.3037848,45.746184 66.4889669,34.9151054 C66.4927887,34.6915811 66.4927887,34.4680074 66.4889669,34.2444824 L66.4889669,34.2444831 C66.4889669,15.8840486 51.6049183,1 33.2444838,1 C33.2444838,1 33.2444831,1 33.2444831,1 L33.2444846,1 Z M11.6355705,32.5822777 L11.6355703,32.5822777 C8.88150515,32.5822777 6.64889786,30.3496704 6.64889786,27.5956052 C6.64889786,24.84154 8.88150515,22.6089328 11.6355703,22.6089328 C14.3896355,22.6089328 16.6222428,24.84154 16.6222428,27.5956052 L16.6222428,27.5956052 C16.6222428,30.3496704 14.3896355,32.5822777 11.6355703,32.5822777 L11.6355705,32.5822777 Z M23.2711396,20.9467086 L23.2711394,20.9467086 C20.5170742,20.9467086 18.284467,18.7141013 18.284467,15.9600361 C18.284467,13.2059709 20.5170742,10.9733637 23.2711394,10.9733637 C26.0252046,10.9733637 28.2578119,13.2059709 28.2578119,15.9600361 L28.2578119,15.9600359 C28.2578119,18.7141011 26.0252046,20.9467086 23.2711394,20.9467086 L23.2711396,20.9467086 Z M43.2178295,20.9467086 L43.2178293,20.9467086 C40.4637641,20.9467086 38.2311568,18.7141013 38.2311568,15.9600361 C38.2311568,13.2059709 40.4637641,10.9733637 43.2178293,10.9733637 C45.9718945,10.9733637 48.2045018,13.2059709 48.2045018,15.9600361 L48.2045018,15.9600359 C48.2045018,18.7141011 45.9718945,20.9467086 43.2178293,20.9467086 L43.2178295,20.9467086 Z M54.8533986,32.5822777 L54.8533984,32.5822777 C52.0993332,32.5822777 49.8667259,30.3496704 49.8667259,27.5956052 C49.8667259,24.84154 52.0993332,22.6089328 54.8533984,22.6089328 C57.6074636,22.6089328 59.8400709,24.84154 59.8400709,27.5956052 L59.8400709,27.5956052 C59.8400709,30.3496704 57.6074636,32.5822777 54.8533984,32.5822777 L54.8533986,32.5822777 Z" id="形状" fill="#888888" fill-rule="nonzero"></path>
            </g>
        </g>
    </g>
</svg>