<?xml version="1.0" encoding="UTF-8"?>
<svg width="55px" height="68px" viewBox="0 0 55 68" version="1.1" xmlns="http://www.w3.org/2000/svg" xmlns:xlink="http://www.w3.org/1999/xlink">
    <!-- Generator: Sketch 59.1 (86144) - https://sketch.com -->
    <title>字体</title>
    <desc>Created with Sketch.</desc>
    <g id="页面-1" stroke="none" stroke-width="1" fill="none" fill-rule="evenodd">
        <g id="画板" transform="translate(-595.000000, -339.000000)">
            <g id="字体" transform="translate(588.000000, 339.000000)">
                <rect id="矩形" x="0" y="0" width="68" height="68"></rect>
                <path d="M62,57 L62,68 L51.4231021,68 L51.4231021,57 L62,57 Z M38.7307592,57 L38.7307592,68 L28.1538613,68 L28.1538613,57 L38.7307592,57 Z M17.5768979,57 L17.5768979,68 L7,68 L7,57 L17.5768979,57 Z M39.5525909,0 L58,49 L47.441746,49 L43.0494979,38.8603252 L24.9505021,38.8603252 L20.558254,49 L10,49 L28.4537475,0 L39.5525909,0 Z M35.2216419,15.0808998 L32.8396898,15.0808998 L27.315615,30.1274896 L40.6781643,30.1274896 L35.2216419,15.0808998 Z" id="形状结合" fill="#888888" fill-rule="nonzero"></path>
            </g>
        </g>
    </g>
</svg>