<?xml version="1.0" encoding="UTF-8"?>
<svg width="68px" height="52px" viewBox="0 0 68 52" version="1.1" xmlns="http://www.w3.org/2000/svg" xmlns:xlink="http://www.w3.org/1999/xlink">
    <!-- Generator: Sketch 59.1 (86144) - https://sketch.com -->
    <title>读屏</title>
    <desc>Created with Sketch.</desc>
    <g id="页面-1" stroke="none" stroke-width="1" fill="none" fill-rule="evenodd">
        <g id="画板" transform="translate(-407.000000, -347.000000)">
            <g id="读屏" transform="translate(407.000000, 339.000000)">
                <rect id="矩形" x="0" y="0" width="68" height="68"></rect>
                <path d="M31.4160366,8.24493091 C32.5720379,7.56493012 34.0000396,8.38093107 34.0000396,9.70693261 L34.0000396,9.70693261 L34.0000396,58.122989 C34.0000396,59.4489905 32.5380379,60.2649914 31.4160366,59.5849907 L31.4160366,59.5849907 L17.0000198,50.9149806 L3.40000396,50.9149806 C1.53000178,50.9149806 -3.55271368e-14,49.3849788 -3.55271368e-14,47.5149766 L-3.55271368e-14,47.5149766 L-3.55271368e-14,20.382945 C-3.55271368e-14,18.4789428 1.56400182,16.914941 3.46800404,16.914941 L3.46800404,16.914941 L17.0000198,16.914941 Z M51.8840604,11.2369344 C53.1420618,9.84293277 55.2840643,9.70693261 56.678066,10.9649341 C57.1200665,11.4069346 67.932079,21.198946 68.0000791,34.6629617 C68.0000791,42.686971 64.1920747,50.1329797 56.712066,56.8309874 C56.0660652,57.4089881 55.2500643,57.6809884 54.4340633,57.6809884 C53.4820622,57.6809884 52.5640612,57.306988 51.8840604,56.5589871 C50.6260589,55.1649855 50.7620591,53.022983 52.1560607,51.7649816 C58.1400677,46.4269753 61.1660712,40.6809687 61.1660712,34.6629617 C61.1660712,24.1909495 52.2580608,16.0989401 52.1560607,16.03094 C50.7620591,14.7729385 50.6260589,12.630936 51.8840604,11.2369344 Z M41.6840485,21.4369463 C42.94205,20.0429446 45.0840525,19.9409445 46.4780541,21.198946 C46.7160544,21.4369463 52.5980612,26.8089525 52.5980612,34.2889612 C52.5980612,38.8109665 50.5580588,42.9589713 46.4780541,46.6309756 C45.8320533,47.2089763 45.0160524,47.5149766 44.2000514,47.5149766 C43.2820504,47.5149766 42.3640493,47.1409762 41.6840485,46.3929753 C40.426047,44.9989737 40.5280472,42.8569712 41.9220488,41.5989697 C44.5060518,39.252967 45.7980533,36.8049641 45.7980533,34.2889612 C45.7980533,29.8689561 41.9560488,26.2649519 41.9220488,26.2309518 C40.5280472,24.9729504 40.426047,22.8309479 41.6840485,21.4369463 Z" id="形状结合" fill="#888888" fill-rule="nonzero"></path>
            </g>
        </g>
    </g>
</svg>