<?xml version="1.0" encoding="UTF-8"?>
<svg width="67px" height="67px" viewBox="0 0 67 67" version="1.1" xmlns="http://www.w3.org/2000/svg" xmlns:xlink="http://www.w3.org/1999/xlink">
    <!-- Generator: Sketch 59.1 (86144) - https://sketch.com -->
    <title>退出备份</title>
    <desc>Created with Sketch.</desc>
    <g id="页面-1" stroke="none" stroke-width="1" fill="none" fill-rule="evenodd">
        <g id="画板" transform="translate(-782.000000, -580.000000)">
            <g id="退出备份" transform="translate(781.000000, 579.000000)">
                <rect id="矩形" x="0" y="0" width="68" height="68"></rect>
                <path d="M34.2444846,1 L34.2444831,1 C15.8840486,1 1,15.8840486 1,34.2444831 C1,52.6049177 15.8840486,67.4889663 34.2444831,67.4889663 C52.6049177,67.4889663 67.4889663,52.6049177 67.4889663,34.2444831 L67.4889663,34.2444831 C67.4889663,15.8840486 52.6049177,1 34.2444831,1 L34.2444846,1 Z M48.9551684,43.0542712 L48.9551687,43.0542714 C50.5846597,44.6837624 50.5846597,47.3256762 48.9551681,48.9551672 C47.3256771,50.5846582 44.6837633,50.5846582 43.0542723,48.9551666 L34.2444843,40.103823 L25.4346963,48.9551666 L25.4346966,48.9551663 C23.8052056,50.5846573 21.1632918,50.5846573 19.5338008,48.9551669 C17.9043098,47.3256759 17.9043098,44.6837622 19.5338002,43.0542712 L28.3851439,34.2444831 L19.5338002,25.4346951 L19.5338002,25.4346951 C17.9043092,23.8052041 17.9043092,21.1632903 19.5338002,19.5337993 C21.1632912,17.9043083 23.805205,17.9043083 25.434696,19.5337994 L34.244484,28.385143 L43.0542721,19.5337994 L43.054272,19.5337994 C44.683763,17.9043084 47.3256768,17.9043084 48.9551678,19.5337993 C50.5846588,21.1632903 50.5846588,23.8052041 48.9551678,25.4346951 L40.1038242,34.2444831 L48.9551684,43.0542712 Z" id="形状" fill="#FFFFFF" fill-rule="nonzero"></path>
            </g>
        </g>
    </g>
</svg>